<svg id="svg" version="1.1" xmlns="http://www.w3.org/2000/svg" xmlns:xlink="http://www.w3.org/1999/xlink" width="400" height="397.9591836734694" viewBox="0, 0, 400,397.9591836734694"><g id="svgg"><path id="path0" d="M166.556 160.119 C 166.441 279.241,166.403 286.064,165.825 289.286 C 165.274 292.361,165.202 295.805,165.081 325.255 L 164.946 357.823 183.664 357.823 L 202.381 357.823 202.381 297.154 L 202.381 236.484 219.460 217.901 C 232.838 203.344,236.624 199.410,236.937 199.744 C 237.156 199.978,249.569 217.925,264.520 239.626 C 279.471 261.327,303.914 296.798,318.837 318.452 L 345.971 357.823 369.584 357.823 C 382.571 357.823,393.197 357.754,393.197 357.669 C 393.197 357.531,370.450 324.914,286.965 205.342 C 273.930 186.672,263.265 171.249,263.265 171.069 C 263.265 170.888,288.551 143.382,319.457 109.945 C 378.425 46.146,387.453 36.370,388.558 35.119 L 389.234 34.354 367.637 34.354 L 346.040 34.354 274.931 111.139 C 235.821 153.372,203.498 188.217,203.102 188.573 L 202.381 189.221 202.381 111.787 L 202.381 34.354 184.529 34.354 L 166.677 34.354 166.556 160.119 " stroke="none" fill="#f3630c" fill-rule="evenodd"></path><path id="path1" d="M129.246 154.677 C 129.243 229.480,129.116 276.544,128.910 279.082 C 125.951 315.624,109.923 330.952,74.673 330.952 C 55.096 330.952,35.872 326.911,19.280 319.306 C 17.256 318.378,15.496 317.722,15.368 317.847 C 15.241 317.972,12.664 324.684,9.643 332.762 L 4.149 347.449 6.751 348.775 C 38.852 365.138,86.109 368.789,116.896 357.285 C 143.625 347.297,160.765 324.594,165.278 293.196 C 166.672 283.493,166.666 284.104,166.666 157.568 L 166.667 34.354 147.959 34.354 L 129.252 34.354 129.246 154.677 " stroke="none" fill="#1babd3" fill-rule="evenodd"></path><path id="path2" d="M0.000 198.980 L 0.000 397.959 200.000 397.959 L 400.000 397.959 400.000 198.980 L 400.000 0.000 200.000 0.000 L 0.000 0.000 0.000 198.980 M202.381 111.787 L 202.381 189.221 203.102 188.573 C 203.498 188.217,235.821 153.372,274.931 111.139 L 346.040 34.354 367.637 34.354 L 389.234 34.354 388.558 35.119 C 387.453 36.370,378.425 46.146,319.457 109.945 C 288.551 143.382,263.265 170.888,263.265 171.069 C 263.265 171.249,273.930 186.672,286.965 205.342 C 370.450 324.914,393.197 357.531,393.197 357.669 C 393.197 357.754,382.571 357.823,369.584 357.823 L 345.971 357.823 318.837 318.452 C 303.914 296.798,279.471 261.327,264.520 239.626 C 249.569 217.925,237.156 199.978,236.937 199.744 C 236.624 199.410,232.838 203.344,219.460 217.901 L 202.381 236.484 202.381 297.154 L 202.381 357.823 183.673 357.823 L 164.966 357.823 164.927 327.126 C 164.905 310.242,164.821 296.735,164.741 297.109 C 158.604 325.652,145.331 344.057,123.299 354.575 C 92.918 369.078,41.570 366.523,6.751 348.775 L 4.149 347.449 9.643 332.762 C 12.664 324.684,15.241 317.972,15.368 317.847 C 15.496 317.722,17.256 318.378,19.280 319.306 C 35.872 326.911,55.096 330.952,74.673 330.952 C 109.923 330.952,125.951 315.624,128.910 279.082 C 129.116 276.544,129.243 229.480,129.246 154.677 L 129.252 34.354 165.816 34.354 L 202.381 34.354 202.381 111.787 " stroke="none" fill="#040404" fill-rule="evenodd"></path></g></svg>
